<?xml version="1.0" encoding="UTF-8" standalone="no" ?>
<!DOCTYPE svg PUBLIC "-//W3C//DTD SVG 1.1//EN" "http://www.w3.org/Graphics/SVG/1.1/DTD/svg11.dtd">
<svg xmlns="http://www.w3.org/2000/svg" xmlns:xlink="http://www.w3.org/1999/xlink" version="1.1" width="473" height="474" viewBox="0 0 473 474" xml:space="preserve">
<desc>Created with Fabric.js 3.6.3</desc>
<defs>
</defs>
<g transform="matrix(4.53 0 0 4.53 236.61 236.84)"  >
<path style="stroke: none; stroke-width: 1; stroke-dasharray: none; stroke-linecap: butt; stroke-dashoffset: 0; stroke-linejoin: miter; stroke-miterlimit: 4; fill: rgb(255,255,255); fill-rule: evenodd; opacity: 1;"  transform=" translate(-63.12, -62.95)" d="M 62.271 10.88 c -0.189 0.11 -0.982 1.248 -1.763 2.529 c -1.96 3.217 -1.982 3.219 -4.615 0.448 c -1.713 -1.802 -2.127 -2.132 -2.679 -2.128 c -0.359 0.002 -0.812 0.124 -1.008 0.271 c -0.195 0.147 -0.748 1.317 -1.228 2.6 c -1.099 2.939 -1.152 3.034 -1.761 3.151 c -0.375 0.071 -1.097 -0.331 -2.828 -1.574 c -1.278 -0.919 -2.532 -1.67 -2.786 -1.67 c -1.054 0 -1.351 0.576 -1.853 3.593 c -0.638 3.836 -0.616 3.823 -4.074 2.252 c -1.396 -0.633 -2.72 -1.152 -2.943 -1.152 c -0.223 0 -0.646 0.24 -0.939 0.533 c -0.532 0.533 -0.533 0.535 -0.388 3.468 l 0.146 2.936 l -0.555 0.297 c -0.492 0.263 -0.831 0.231 -3.009 -0.284 c -2.843 -0.671 -3.443 -0.653 -4.019 0.122 l -0.421 0.566 l 0.565 2.421 c 0.31 1.331 0.609 2.613 0.665 2.848 c 0.055 0.234 -0.04 0.609 -0.212 0.832 c -0.284 0.367 -0.586 0.4 -3.217 0.36 c -4.453 -0.07 -4.706 0.312 -2.866 4.328 c 0.585 1.275 1.064 2.433 1.064 2.572 c 0 0.734 -0.585 1.001 -3.098 1.411 c -1.406 0.229 -2.628 0.417 -2.716 0.417 c -0.088 0 -0.352 0.192 -0.586 0.426 c -0.765 0.765 -0.548 1.483 1.187 3.932 c 2.161 3.05 2.157 3.061 -1.413 4.427 c -4.06 1.553 -4.142 1.936 -1.051 4.868 c 2.879 2.73 2.882 2.69 -0.377 4.739 c -2.469 1.551 -2.507 1.588 -2.57 2.429 c -0.076 1.023 -0.058 1.041 2.89 2.842 c 2.915 1.78 2.915 1.834 0.054 4.541 c -3.077 2.91 -2.982 3.335 1.081 4.868 c 3.55 1.339 3.555 1.355 1.39 4.405 c -1.227 1.729 -1.618 2.449 -1.618 2.983 c 0 0.999 0.52 1.254 3.627 1.776 c 2.617 0.441 3.2 0.7 3.2 1.422 c 0 0.148 -0.48 1.316 -1.067 2.594 c -1.826 3.977 -1.618 4.308 2.704 4.308 c 4.025 0 3.918 -0.123 3.051 3.507 c -0.654 2.736 -0.664 3.26 -0.072 3.851 c 0.453 0.454 1.307 0.403 3.978 -0.236 c 2.04 -0.487 2.398 -0.521 2.871 -0.268 l 0.54 0.289 l -0.146 2.935 c -0.145 2.934 -0.144 2.936 0.388 3.469 c 0.293 0.293 0.722 0.533 0.952 0.533 c 0.23 0 1.554 -0.516 2.943 -1.147 c 3.447 -1.565 3.425 -1.578 4.061 2.246 c 0.504 3.031 0.798 3.594 1.874 3.594 c 0.267 0 1.494 -0.72 2.728 -1.6 c 2.167 -1.546 2.729 -1.788 3.306 -1.421 c 0.149 0.094 0.727 1.364 1.284 2.822 c 0.819 2.144 1.119 2.702 1.575 2.92 c 0.868 0.416 1.405 0.082 3.445 -2.14 c 2.463 -2.683 2.564 -2.67 4.575 0.589 c 2.221 3.598 2.796 3.59 5.073 -0.073 c 1.962 -3.156 1.939 -3.154 4.591 -0.384 c 1.761 1.838 2.136 2.131 2.73 2.131 c 0.379 0 0.832 -0.142 1.005 -0.316 c 0.174 -0.174 0.75 -1.459 1.28 -2.855 c 0.53 -1.397 1.079 -2.613 1.221 -2.703 c 0.561 -0.357 1.142 -0.106 3.306 1.43 c 1.274 0.905 2.473 1.6 2.758 1.6 c 1.058 0 1.44 -0.751 1.88 -3.703 c 0.376 -2.517 0.452 -2.758 0.947 -3.009 c 0.487 -0.247 0.779 -0.164 3.063 0.873 c 1.389 0.63 2.713 1.146 2.943 1.146 c 0.23 0 0.666 -0.247 0.967 -0.549 l 0.549 -0.548 l -0.151 -2.815 c -0.144 -2.688 -0.131 -2.832 0.298 -3.22 c 0.441 -0.399 0.486 -0.397 2.952 0.166 c 2.986 0.682 3.543 0.7 4.104 0.139 c 0.548 -0.548 0.542 -0.668 -0.208 -3.831 c -0.841 -3.548 -0.954 -3.422 3.088 -3.422 c 2.755 0 3.062 -0.039 3.413 -0.426 c 0.586 -0.648 0.447 -1.39 -0.732 -3.903 c -0.595 -1.266 -1.078 -2.418 -1.074 -2.56 c 0.02 -0.747 0.607 -1.002 3.32 -1.443 c 1.66 -0.269 2.902 -0.581 3.127 -0.784 c 0.754 -0.681 0.477 -1.567 -1.244 -3.98 c -2.157 -3.024 -2.148 -3.053 1.306 -4.326 c 4.136 -1.524 4.254 -2.032 1.159 -4.973 c -2.867 -2.724 -2.868 -2.709 0.272 -4.637 c 3.796 -2.33 3.802 -2.855 0.067 -5.173 c -3.212 -1.993 -3.21 -1.965 -0.331 -4.699 c 3.088 -2.934 3.004 -3.318 -1.057 -4.871 c -3.584 -1.371 -3.595 -1.405 -1.417 -4.394 c 1.297 -1.78 1.618 -2.371 1.618 -2.981 c 0 -1.066 -0.478 -1.305 -3.622 -1.813 c -2.627 -0.424 -3.205 -0.682 -3.205 -1.429 c 0 -0.142 0.48 -1.285 1.067 -2.542 c 1.149 -2.461 1.31 -3.446 0.66 -4.035 c -0.349 -0.316 -0.817 -0.361 -3.321 -0.32 c -2.62 0.044 -2.955 0.007 -3.318 -0.358 c -0.397 -0.399 -0.393 -0.455 0.227 -3.042 c 0.76 -3.17 0.763 -3.247 0.138 -3.834 c -0.634 -0.596 -1.03 -0.586 -3.941 0.099 c -2.121 0.5 -2.472 0.533 -2.954 0.275 l -0.547 -0.293 l 0.151 -2.926 l 0.152 -2.925 l -0.547 -0.547 c -0.301 -0.301 -0.728 -0.547 -0.95 -0.547 c -0.221 0 -1.538 0.523 -2.926 1.161 c -2.318 1.067 -2.567 1.138 -3.068 0.876 c -0.5 -0.262 -0.583 -0.52 -1.01 -3.127 c -0.493 -3.016 -0.798 -3.603 -1.869 -3.603 c -0.254 0 -1.513 0.755 -2.798 1.678 c -2.11 1.516 -2.393 1.659 -2.919 1.476 c -0.435 -0.152 -0.688 -0.483 -0.997 -1.306 c -0.229 -0.606 -0.667 -1.774 -0.975 -2.595 c -0.622 -1.656 -0.969 -2.027 -1.901 -2.027 c -0.52 0 -0.991 0.374 -2.679 2.127 c -2.653 2.756 -2.663 2.755 -4.614 -0.445 c -0.78 -1.279 -1.595 -2.421 -1.812 -2.537 c -0.488 -0.262 -1.062 -0.261 -1.511 0.002 m 2.418 9.635 c 2.311 1.645 1.082 5.512 -1.752 5.512 c -2.75 0 -4.135 -3.313 -2.171 -5.194 c 1.108 -1.062 2.697 -1.191 3.923 -0.318 m -2.906 10.214 c 1.515 0.576 2.137 0.23 5.596 -3.104 l 2.599 -2.506 l 1.1 0.146 c 3.45 0.458 10.312 3.472 14.255 6.261 c 3.623 2.564 8.438 7.786 10.49 11.377 l 0.439 0.769 l -1.944 4.38 c -1.07 2.409 -1.945 4.633 -1.945 4.944 c 0 0.717 0.47 1.851 0.923 2.226 c 0.191 0.159 2.006 1.033 4.033 1.942 l 3.684 1.654 l 0.145 0.937 c 0.187 1.221 0.212 4.22 0.042 5.072 l -0.133 0.666 h -2.103 c -2.439 0 -2.251 -0.218 -2.383 2.774 c -0.096 2.169 -0.62 3.368 -1.812 4.144 c -1.942 1.267 -5.149 1.037 -6.509 -0.466 c -0.209 -0.231 -0.615 -1.392 -0.903 -2.581 c -0.841 -3.473 -1.971 -5.423 -4.241 -7.32 c -0.717 -0.599 -1.303 -1.158 -1.303 -1.243 c 0 -0.084 0.788 -0.748 1.752 -1.473 c 3.51 -2.646 5.528 -5.726 5.75 -8.777 c 0.423 -5.819 -4.213 -11.243 -11.109 -13.001 c -1.635 -0.417 -2.333 -0.43 -22.56 -0.43 c -11.48 0 -20.873 -0.075 -20.873 -0.166 c 0 -0.215 2.551 -2.691 4.054 -3.933 c 4.127 -3.412 9.488 -6.097 15.04 -7.531 l 1.92 -0.497 l 2.728 2.766 c 1.501 1.521 2.972 2.857 3.268 2.97 M 27.432 48.526 c 1.257 0.823 1.772 2.891 1.03 4.134 c -1.148 1.924 -4.056 2.005 -5.205 0.145 c -1.671 -2.702 1.547 -6.001 4.175 -4.279 m 74.05 0.105 c 3.288 2.005 0.74 6.937 -2.78 5.38 c -2.35 -1.04 -2.425 -4.252 -0.127 -5.424 c 0.959 -0.489 2.061 -0.472 2.907 0.044 M 37.12 60.907 v 12.266 H 26.276 l -0.43 -1.866 c -0.846 -3.675 -1.202 -7.477 -0.989 -10.591 l 0.149 -2.188 l 3.728 -1.672 c 2.339 -1.048 3.843 -1.847 4.037 -2.144 c 0.848 -1.293 0.767 -2.217 -0.423 -4.845 l -0.556 -1.227 h 5.328 v 12.267 m 31.22 -11.733 c 2.322 0.604 3.549 1.833 3.552 3.556 c 0.002 1.265 -0.625 2.059 -2.18 2.761 c -1.101 0.498 -1.276 0.51 -8.219 0.578 l -7.093 0.068 v -7.284 h 6.355 c 4.964 0 6.625 0.07 7.585 0.321 m -2.396 17.602 c 1.151 0.32 2.512 1.32 3.21 2.359 c 0.733 1.092 1.162 2.512 2.178 7.216 c 0.858 3.976 1.41 5.276 2.956 6.968 c 1.915 2.095 1.471 2.014 11.037 2.014 c 4.581 0 8.328 0.073 8.328 0.163 c 0 0.161 -3.155 3.891 -3.291 3.891 c -0.039 0 -1.687 -0.345 -3.662 -0.767 c -5.577 -1.191 -5.778 -1.051 -7.058 4.926 l -0.823 3.84 l -0.743 0.366 c -1.24 0.612 -5.27 1.872 -7.359 2.302 c -3.452 0.71 -7.209 0.95 -10.511 0.671 c -5.629 -0.477 -13.083 -2.661 -13.374 -3.92 c -0.062 -0.267 -0.437 -1.995 -0.832 -3.841 c -0.396 -1.846 -0.877 -3.597 -1.069 -3.891 c -0.923 -1.408 -1.894 -1.495 -6.164 -0.55 c -1.617 0.358 -3.028 0.65 -3.136 0.65 c -0.203 0 -3.204 -3.47 -3.204 -3.704 c 0 -0.073 7.128 -0.158 15.84 -0.188 l 15.84 -0.054 l 0.057 -5.627 c 0.04 -3.973 -0.015 -5.714 -0.187 -5.92 c -0.192 -0.232 -1.214 -0.293 -4.91 -0.293 H 54.4 V 66.56 l 5.387 0.001 c 2.962 0.001 5.733 0.098 6.157 0.215 M 41.536 92.365 c 2.519 1.535 1.311 5.557 -1.668 5.554 c -3.055 -0.002 -4.187 -3.987 -1.584 -5.575 c 0.861 -0.525 2.374 -0.515 3.252 0.021 m 46.126 0.168 c 1.235 0.905 1.646 2.788 0.881 4.042 c -2.009 3.295 -7.033 0.676 -5.355 -2.791 c 0.825 -1.703 3.018 -2.317 4.474 -1.251" stroke-linecap="round" />
</g>
</svg>